<svg width="19" height="24" viewBox="0 0 19 24" fill="none" xmlns="http://www.w3.org/2000/svg">
<path d="M2.375 0C1.05687 0 0 1.068 0 2.4V21.6C0 22.2365 0.250222 22.847 0.695621 23.2971C1.14102 23.7471 1.74511 24 2.375 24H16.625C17.2549 24 17.859 23.7471 18.3044 23.2971C18.7498 22.847 19 22.2365 19 21.6V7.2L11.875 0H2.375ZM10.6875 1.8L17.2188 8.4H10.6875V1.8ZM9.5 10.8C10.4448 10.8 11.351 11.1793 12.0191 11.8544C12.6872 12.5295 13.0625 13.4452 13.0625 14.4C13.0625 16.656 10.3906 16.872 10.3906 18.9H8.60938C8.60938 15.972 11.2812 16.2 11.2812 14.4C11.2812 13.9226 11.0936 13.4648 10.7595 13.1272C10.4255 12.7896 9.97242 12.6 9.5 12.6C9.02758 12.6 8.57452 12.7896 8.24047 13.1272C7.90642 13.4648 7.71875 13.9226 7.71875 14.4H5.9375C5.9375 13.4452 6.31283 12.5295 6.98093 11.8544C7.64903 11.1793 8.55517 10.8 9.5 10.8ZM8.60938 19.8H10.3906V21.6H8.60938V19.8Z" fill="#5A7CA8"/>
</svg>
