<svg width="24" height="24" viewBox="0 0 24 24" fill="none" xmlns="http://www.w3.org/2000/svg">
<path d="M21 0H3C1.34062 0 0 1.34062 0 3V15C0 16.6594 1.34062 18 3 18H9L6.99844 24L15.9984 18H21C22.6594 18 24 16.6594 24 15V3C24 1.34062 22.6594 0 21 0ZM6 11.0016C4.89375 11.0016 3.99844 10.1062 3.99844 9C3.99844 7.89375 4.89375 6.99844 6 6.99844C7.10625 6.99844 8.00156 7.89375 8.00156 9C8.00156 10.1062 7.10625 11.0016 6 11.0016ZM12 11.0016C10.8938 11.0016 9.99844 10.1062 9.99844 9C9.99844 7.89375 10.8938 6.99844 12 6.99844C13.1062 6.99844 14.0016 7.89375 14.0016 9C14.0016 10.1062 13.1062 11.0016 12 11.0016ZM18 11.0016C16.8937 11.0016 15.9984 10.1062 15.9984 9C15.9984 7.89375 16.8937 6.99844 18 6.99844C19.1063 6.99844 20.0016 7.89375 20.0016 9C20.0016 10.1062 19.1063 11.0016 18 11.0016Z" fill="#5A7CA8"/>
</svg>
