<svg width="24" height="24" fill="none" xmlns="http://www.w3.org/2000/svg"><path d="M22.6 24c-2.867 0-5.66-.64-8.383-1.917a25.455 25.455 0 01-12.3-12.3C.64 7.06.001 4.266 0 1.4 0 1 .133.667.4.4S1 0 1.4 0h5.4c.311 0 .589.1.833.3.245.2.39.456.434.767l.866 4.666a2.39 2.39 0 01-.017.851 1.366 1.366 0 01-.383.683l-3.2 3.266c.934 1.6 2.1 3.1 3.5 4.5s2.945 2.611 4.634 3.634l3.133-3.134c.2-.2.461-.35.784-.449.323-.1.64-.128.95-.084l4.6.933c.31.067.566.217.766.451.2.234.3.506.3.816v5.4c0 .4-.133.733-.4 1s-.6.4-1 .4z" fill="#5A7CA8"/></svg>