<svg width="19" height="24" fill="none" xmlns="http://www.w3.org/2000/svg"><path d="M2.375 0A2.38 2.38 0 000 2.4v19.2c0 .636.25 1.247.696 1.697.445.45 1.05.703 1.679.703h14.25c.63 0 1.234-.253 1.68-.703.445-.45.695-1.06.695-1.697V7.2L11.875 0h-9.5zm8.313 1.8l6.53 6.6h-6.53V1.8zm-1.188 9c.945 0 1.851.38 2.52 1.054a3.62 3.62 0 011.043 2.546c0 2.256-2.672 2.472-2.672 4.5H8.609c0-2.928 2.672-2.7 2.672-4.5a1.81 1.81 0 00-.522-1.273 1.772 1.772 0 00-2.519 0 1.81 1.81 0 00-.52 1.273H5.937c0-.955.376-1.87 1.044-2.546A3.544 3.544 0 019.5 10.8zm-.89 9h1.78v1.8H8.61v-1.8z" fill="#5A7CA8"/></svg>